<?xml version="1.0" encoding="utf-8"?>
<!-- Generator: Adobe Illustrator 24.0.2, SVG Export Plug-In . SVG Version: 6.00 Build 0)  -->
<svg version="1.1" id="Capa_1" xmlns="http://www.w3.org/2000/svg" xmlns:xlink="http://www.w3.org/1999/xlink" x="0px" y="0px"
	 viewBox="0 0 1334 1000" style="enable-background:new 0 0 1334 1000;" xml:space="preserve">
<g>
	<path fill="currentColor" d="M1333.7,98.9c-7.5,26.5-25.9,45.1-44.7,63.8c-269.3,269-538.4,538.1-807.4,807.3
		c-26.7,26.7-57.2,37.6-93.3,24.1c-11.8-4.4-23.2-12.3-32.2-21.2C246.2,863.9,136.7,754.3,27.3,644.6c-35.1-35.2-35.9-86.6-2.6-120
		c33.7-33.8,85.2-32.9,120.9,2.7c87,86.7,173.7,173.6,260.6,260.5c3.3,3.3,6.8,6.5,13.7,13.1c3.5-5.3,5.8-10.7,9.7-14.6
		c251.8-252.1,503.8-503.9,755.6-756c23.8-23.9,50.9-35.9,84.5-27.8c28.6,6.9,48,24.8,58.7,52.2c1.7,4.3,3.4,8.6,5.1,13
		C1333.7,78.1,1333.7,88.5,1333.7,98.9z"/>
</g>
</svg>
