
<svg version="1.1" id="Capa_1" xmlns="http://www.w3.org/2000/svg" xmlns:xlink="http://www.w3.org/1999/xlink" x="0px" y="0px"
	 viewBox="0 0 1000 1000">
<path fill="currentColor" d="M972.3,869.6l-0.8-0.8C848.8,745.9,726.1,622.9,603.3,500c123.4-123.6,246.8-247.2,370.2-370.8
	c27.6-27.6,33.2-62.5,15.1-93.4c-12.6-21.5-33.4-30.2-47.9-34.9L938.1,0h-23.4l-1.9,0.5c-21.8,5.4-37.1,19.3-50.8,33.1
	c-74.3,74.6-148.7,149.2-223.1,223.7c-46.3,46.4-92.6,92.8-138.8,139.2c-46.7-46.8-93.4-93.6-140.1-140.4
	C286,182,212,107.8,138.1,33.6c-13.7-13.8-29-27.7-50.8-33.1L85.3,0H61.9l-2.4,0.8c-25.9,8.2-42.8,22-51.8,42.4
	C6.3,46.5,5,50,3.7,53.5L1,60.5v23.9l0.5,1.9c5.3,21.8,18.7,36.6,33.1,51c73.9,73.9,147.8,147.9,221.7,221.9
	c46.8,46.9,93.7,93.8,140.5,140.8c-46.6,46.6-93.2,93.3-139.8,140c-74.1,74.3-148.2,148.5-222.4,222.7
	c-13.8,13.8-27.7,29.1-33.1,50.9L1,915.5v23.4l0.8,2.4c8,25.5,21.5,42.3,41.2,51.4c3.7,1.7,7.4,3.1,11.2,4.5l7.3,2.8h23.9l1.9-0.5
	c21.8-5.3,36.5-18.7,50.9-33.1c73.8-74.1,147.7-148.2,221.6-222.2c46.8-46.9,93.6-93.8,140.4-140.7c46.9,47.1,93.9,94.1,140.8,141.1
	c73.7,73.9,147.5,147.8,221.1,221.8c14.4,14.5,29.1,27.9,50.9,33.1l1.9,0.5h23.4l2.4-0.8c15.8-5.1,38.3-14.7,50.3-39.4
	c12.9-26.5,10.5-53.2-7-77.2C980.2,877.6,976,873.4,972.3,869.6z"/>
</svg>
