<?xml version="1.0" encoding="utf-8"?>
<!-- Generator: Adobe Illustrator 24.0.2, SVG Export Plug-In . SVG Version: 6.00 Build 0)  -->
<svg version="1.1" xmlns="http://www.w3.org/2000/svg" xmlns:xlink="http://www.w3.org/1999/xlink" x="0px" y="0px"
	 viewBox="0 0 1000 224" style="enable-background:new 0 0 1000 224;" xml:space="preserve">
<style type="text/css">
	.st0{fill:none;stroke:#FFFFFF;stroke-width:2;stroke-miterlimit:10;}
	.st1{fill:#FFFFFF;}
</style>
<g>
	<path class="st0" d="M248.3,139.8h30.9L257.6,94l-38.5,83.2h-27.8l52.6-106.3l26.4-7.1l54.4,113.4h-27.8l-7-14.8h-51.3L248.3,139.8
		z"/>
	<path class="st0" d="M359,153.7h80.6l-7.1,23.5h-99.8V66.6h107l-7.1,23.5H359v20.1h68.5v23.5H359V153.7z"/>
	<path class="st0" d="M481.8,99.2v19.5h47.1c8,0,12.1-7.3,12.1-14.5c0-7.1-4-14.1-12.1-14.1h-73.5l7.1-23.5h66.7
		c25.9,0,39.6,19.7,39.6,38.9c0,14.5-7.8,29.1-24.2,34.5l27.5,37.2H541L517,142.3h-35.2v34.9h-26.3v-70.8L481.8,99.2z"/>
	<path class="st1" d="M609.4,99.2v11H658c8,0,12.1-5.1,12.1-10.3c0-5-4-9.8-12.1-9.8h-74.9l7.1-23.5h68.1
		c26.1,0,39.6,16.1,39.6,31.9c0,8.4-4.6,17-13.7,22.8c11,6.1,16.5,15.5,16.5,24.9c0,15.5-13,30.9-39.6,30.9h-78.1v-70.8L609.4,99.2z
		 M609.4,153.7h51.4c8,0,12.1-5.1,12.1-10.3c0-5-4-9.8-12.1-9.8h-51.4V153.7z"/>
	<path class="st1" d="M740.9,66.6v110.5h-26.4V66.6H740.9z"/>
	<path class="st1" d="M788.5,99.4v54.3h41.4c14.5,0,22.1-16.4,22.1-32.5c0-15.7-7.1-31.1-22.1-31.1h-67.8l7.1-23.5h63.8
		c30.8,0,46.7,28.3,46.7,56.3c0,27.3-15.2,54.3-46.7,54.3h-70.9v-70.6L788.5,99.4z"/>
	<path class="st1" d="M919.4,153.7h80.6l-7.1,23.5H893V66.6h107l-7.1,23.5h-73.5v20.1h68.5v23.5h-68.5V153.7z"/>
	<g>
		<polygon class="st0" points="253.7,1.5 255.4,-0.4 0,63.2 98.4,113.6 91.1,70.7 		"/>
		<polygon class="st0" points="140.9,135.4 98.4,113.6 117.3,224.4 255.6,0.7 253.7,1.5 		"/>
		<polygon class="st0" points="253.7,1.5 91.1,70.7 98.4,113.6 140.9,135.4 		"/>
	</g>
</g>
</svg>
