<svg version="1.1" xmlns="http://www.w3.org/2000/svg" xmlns:xlink="http://www.w3.org/1999/xlink" x="0px" y="0px"
	 viewBox="0 0 1000 1000">
<g>
	<g>
		<path fill="currentColor" d="M500.3,0C872,0.1,1113.5,391.7,946.2,723.8c-8.4,16.8-9.4,30.5-3.1,48.1c18.2,50.6,33.9,102.1,51.3,153
			c7.7,22.5,7.9,43.1-10.1,60.6c-17.1,16.7-37.3,16.7-58.8,9.4c-53.1-18.1-106.2-36.5-159.9-52.9c-11-3.4-26.4-2.4-36.6,2.8
			c-295,149.2-646.7-16.9-717.8-339.6C-56.8,295.7,182.2,0,500.3,0z M870.5,870.6c-12.2-36.9-21.9-69.7-33.9-101.6
			c-9-24-6.1-44.5,7-66.5c49.4-82.9,65.6-172.7,50.7-268C859.5,210.8,643.9,62.1,418.5,106.4C198.9,149.6,56.5,372.7,109.2,591.1
			C172.4,853,465.7,979.7,699.5,845.2c24.6-14.1,46.6-17.8,73-7.6C803,849.3,834.5,858.6,870.5,870.6z"/>
	</g>
</g>
</svg>
