<svg version="1.1" 
 xmlns="http://www.w3.org/2000/svg" xmlns:xlink="http://www.w3.org/1999/xlink" x="0px" y="0px"
	 viewBox="0 0 1000 1000">
<g>
	<path fill="currentColor" d="M857.5,529.2c-3-20.3-16.4-33.2-36.7-35.5c-1.9-0.2-3.8-0.3-5.6-0.3c-17.9,0-31.6,10.1-37.7,27.6
		c-2.9,8.5-3.4,17.9-3.4,26.8c-0.1,76-0.1,152-0.1,227.9l0,99.4c0,33.2-7.8,40.8-41.6,40.8l-303.2,0l-303.2,0
		c-34.3,0-42.2-8-42.2-42.7c0-225.3,0-450.5,0-675.8c0-34.7,7.5-42.1,42.3-42.2l168.9,0c74,0,147.9,0,221.9-0.1h1.7
		c7.2,0,16.1,0,24.5-1.7c20.2-4.1,32-17.8,33.2-38.6c1.2-20.8-11.2-37.5-31.5-42.5c-7.7-1.9-15.7-2.1-22.6-2.1
		c-80.4-0.1-160.8-0.1-241.2-0.1c-53.1,0-106.2,0-159.3,0.1c-75.2,0.1-122,47-122,122.3c-0.1,80.4,0,160.8,0,241.2v207.9
		c0,78.1,0,156.2,0,234.3c0,77.6,46.4,123.9,124,123.9l322.3,0l288,0c78.9,0,124.3-44.9,124.4-123.3c0.1-86.2,0.1-172.4,0-258.6
		l0-71.2C858.4,541.1,858.4,535.1,857.5,529.2z"/>
	<path fill="currentColor" d="M912.3,11.4C894.2,3.8,875.6,0,857,0c-37.6,0-73,15.5-102.4,44.7c-172.9,172.5-317.3,317-454.3,454.6
		c-8.1,8.1-15.1,19.6-19.3,31.6c-14.2,41.1-28.2,83-41.8,123.5c-7.7,23.1-15.5,46.3-23.3,69.4c-5.5,16.4-9,35.4,7.1,51.9
		c8.1,8.3,17.9,12.5,29.2,12.5c6.6,0,13.8-1.4,22.6-4.3c24.7-8.3,49.5-16.5,74.2-24.8c40.8-13.6,81.7-27.2,122.4-41.1
		c9.8-3.4,18.9-8.8,25.4-15.3C656.6,543.6,812.2,388,959.6,240.2c24.5-24.6,38.6-56.5,39.7-90C999.8,86.3,967.3,34.4,912.3,11.4z
		 M421.3,645.5c-25.6,9.6-51.7,18.1-79.4,27c-7.2,2.3-14.6,4.7-22,7.2l6.7-19.9c11.3-33.7,21.9-65.5,32.8-97.1
		c1.6-4.5,5.8-9.1,9.3-12.6c70.9-70.9,141.8-141.9,212.7-212.8c77-77,154-154.1,231-231.1c14.3-14.3,28.9-21.3,44.6-21.3
		c6.4,0,13.1,1.2,19.9,3.6c21.7,7.6,34.4,23.5,37.5,47.1c2.5,19-4.1,35.2-21.5,52.4c-54.6,54.4-109,108.9-163.5,163.3
		c0,0-94.2,94.3-111.4,111.5c-52.6,52.7-107.1,107.3-161.1,160.4C447.4,632.5,434.8,640.4,421.3,645.5z"/>
</g>
</svg>
