<svg version="1.1" xmlns="http://www.w3.org/2000/svg" xmlns:xlink="http://www.w3.org/1999/xlink" x="0px" y="0px"
	 viewBox="0 0 1044 1000">
<path fill="currentColor" d="M1040.4,378.4c-8.9-28.4-30.6-44.9-62.6-47.7c-39.8-3.5-79.6-7.1-119.4-10.8c-49.1-4.5-99.8-9.1-149.8-13.4
	c-9.9-0.9-13.3-3.3-17.1-12.3c-19.7-47.2-40.1-95-59.9-141.3c-14.8-34.5-29.6-69-44.2-103.7C573.4,16.1,552.1,0,521.5,0
	c-44.3,0.3-60.1,37.7-65.2,50c-12.3,29.3-24.9,58.6-37.5,87.8c-20.8,48.4-42.3,98.5-62.4,148.2c-6.3,15.7-13.1,20.4-31.5,21.8
	c-47.6,3.7-95.9,8.1-142.5,12.4c-36.4,3.3-74,6.8-110.9,9.9c-36.9,3-59.1,19.2-68.1,49.2c-10.9,36.3,10.7,60.4,27.9,75.4
	c29.7,25.8,59.3,51.8,88.9,77.8c36.5,32.1,74.3,65.2,111.7,97.5c7,6,8.1,9.4,5.9,18.3c-9.1,37-17.6,74.8-25.8,111.3l-7.2,32.2
	c-7.2,31.6-14.2,63.2-21.4,95.3l-10,44.7l0.7,2.9c0.6,2.2,1,4.6,1.5,7c1.3,6.4,2.7,13.7,6,20.8c10.8,23.2,32.4,37.1,57.5,37.1
	c13.7,0,27.9-4.2,41.2-12c78.9-46.9,156-92.8,231.9-139c5.5-3.3,8.4-3.7,10.1-3.7c1.7,0,4.8,0.4,10.7,4
	c45.6,27.8,92.2,55.6,137.2,82.5c30.9,18.5,61.9,37,92.7,55.6c14.6,8.8,28.1,13.1,41.5,13.1c13,0,25.5-4.2,37.1-12.4
	c24.4-17.2,32.8-43,25.2-76.6c-6.9-30-13.7-60.1-20.5-90.1c-12.7-56.2-25.8-114.3-39.3-171.4c-2.4-10-1.2-13.8,6.1-20.1
	c47.9-41.4,96.2-83.8,143-124.8c20.2-17.7,40.4-35.5,60.6-53.2C1040.9,430.1,1048.9,405.5,1040.4,378.4z M321.2,678.3
	c0.8-3.3,1.5-6.7,2.2-10c1.4-6.5,2.7-12.6,4.3-18.6c7.9-29.1-0.6-53.9-26-75.9c-38.6-33.5-77-67.3-115.5-101
	c-22-19.3-44.1-38.7-66.2-58l114-10.5l49.3-4.5c27.8-2.5,55.6-5.1,83.3-7.6c28.2-2.6,47.8-18,60.1-47.2
	c23.6-55.9,48-112.7,71.5-167.6l23.7-55.3c6.8,16,13.7,31.9,20.6,47.9c24.2,56.4,49.3,114.7,73.2,172.3
	c13.3,31.9,35.7,48.1,70.6,50.9c62.1,5,123.2,10.7,187.9,16.8c16.4,1.5,33,3.1,49.7,4.7c-15.5,13.6-31,27.3-46.6,41
	c-43.4,38.2-88.2,77.8-132.9,116c-26.9,23-35.6,49.9-27.3,84.6c14.5,60.6,28,120.3,42.2,183.6c3.6,16,7.3,32.2,10.9,48.4
	c-16.7-9.9-33.3-19.8-50-29.7c-49.4-29.3-100.5-59.6-150-90.4c-16.8-10.4-32.6-15.5-48.4-15.5c-15.6,0-31.2,5-47.7,15.2
	c-51.9,32.2-103.7,63-158.6,95.6c-13.9,8.3-27.9,16.6-42.1,25L321.2,678.3z"/>
</svg>
