<svg version="1.1" id="Capa_1" xmlns="http://www.w3.org/2000/svg" xmlns:xlink="http://www.w3.org/1999/xlink" x="0px" y="0px"
	 viewBox="0 0 1119 1000">
<circle fill="none" cx="508.5" cy="500" r="500"/>
<path fill="currentColor" d="M1085.5,190.3C1035.7,74.7,923.1,0,798.6,0c-57.5,0-113.2,16.6-161.1,47.9c-24.3,15.9-45.8,36-66.5,55.4
	c-4.2,4-8.5,8-12.9,12C496.3,42.2,408.7,0.3,317.1,0.3c-85.2,0-165.1,35.5-225.2,99.9C-2.2,201.2-26.8,363.4,32,494.6
	c31.7,70.8,79.7,135.8,142.7,193.2c81.4,74.3,165.7,148,247.1,219.3c24.7,21.6,49.3,43.2,73.9,64.8c21.5,18.9,42.2,28.1,63.3,28.1
	c20.9,0,41.6-9.1,63.4-27.7l40.5-34.6c50.1-42.8,101.8-87.1,152.3-131.1l3-2.6c73-63.7,148.6-129.6,208.8-209.8
	C1125.1,463.8,1144.7,327.9,1085.5,190.3z"/>
</svg>
