<svg version="1.1" id="Capa_1" xmlns="http://www.w3.org/2000/svg" xmlns:xlink="http://www.w3.org/1999/xlink" x="0px" y="0px"
	 viewBox="0 0 1000 1000">
<g>
	<path d="M807.5,430.4c69.7-0.4,83.1,36.5,82,92c-2.6,131-2.6,262.2-0.1,393.2c1.1,59.2-20,85-81.1,84.4
		c-206.5-1.8-413.1-1.5-619.7-0.3c-57.1,0.4-79.1-23.5-78.2-80.3c2.2-135.5,1.1-271,0.5-406.5c-0.2-38.3,4.4-70,50.5-81.1
		c10.5-2.5,21.6-24.6,23.1-38.7c4.2-39.6,0.6-80.1,5.1-119.6c18.8-164,158-281,322.4-273.1c161.9,7.8,288.3,134,295.2,295.8
		C809,338.1,807.5,380.2,807.5,430.4z M686.4,430.3c31.1-141,0.9-248.4-83.3-302.1c-67.7-43.2-153.9-41.1-219.3,5.3
		c-80.6,57.1-108.1,166.9-73.6,296.8C435.5,430.3,561.3,430.3,686.4,430.3z M400.1,690c-16.1,17.4-30.2,32.7-38.5,41.7
		c36.6,41.6,69.6,79.1,92.9,105.5C528.3,763,599.1,691.9,671.7,619c-7.6-7.2-21.4-20.2-45.3-42.8c-53.2,60.4-103.8,117.7-155,175.7
		C442.6,726.8,422.9,709.7,400.1,690z"/>
</g>
</svg>
