<svg version="1.1" xmlns="http://www.w3.org/2000/svg" xmlns:xlink="http://www.w3.org/1999/xlink" x="0px" y="0px"
	 viewBox="0 0 1000 1000">
<style type="text/css">
	.st0{fill:#FFFFFF;}
</style>
<path fill="currentColor" class="st0" d="M833,370c41.4-70.2,38.4-154-8.8-251.1C801.5,83.1,795.8,43.7,811,0H554.6H445.4H189
	c15.2,43.7,9.5,83.1-13.2,118.9c-47.2,97.1-50.2,180.9-8.8,251.1c33.4,74.8,42.3,148.5,8.8,220.3c-36.5,91.7-44.1,158.6-8.8,233.5
	c30.6,77.7,44.8,141,26.4,176.2h252h109.3h252c-18.4-35.2-4.2-98.6,26.4-176.2c35.2-74.9,27.7-141.8-8.8-233.5
	C790.7,518.5,799.7,444.8,833,370z"/>
</svg>
