<svg version="1.1" xmlns="http://www.w3.org/2000/svg" xmlns:xlink="http://www.w3.org/1999/xlink" x="0px" y="0px"
	viewBox="0 0 1000 1000">
<g>
	<g>
		<path fill="currentColor" d="M406.3,312.9c-40.6,0-78.3-0.2-116,0.1c-16.1,0.2-29.9-3.1-37.1-19.2c-7-15.5,0-27.5,10-38.9
			c69.5-79.3,138.7-158.7,208.3-237.8c20-22.8,37-22.8,57-0.1C598,96.2,667.3,175.6,736.7,254.8c9.9,11.3,17.1,23.3,10.2,38.8
			c-7.2,16.2-20.9,19.5-37,19.4c-37.7-0.4-75.4-0.1-116.2-0.1c0,8.4,0,15.9,0,23.4c0,123.6,0,247.2,0,370.8c0,33.4-9.6,43-42.9,43
			c-34.5,0.1-69,0.1-103.4,0c-30.8-0.1-41.1-10.2-41.1-40.9c-0.1-124.3,0-248.5,0-372.8C406.3,329.4,406.3,322.4,406.3,312.9z"/>
		<path fill="currentColor" d="M31.5,688.1c42.6,0,82.2,0,124.1,0c0,61.6,0,122.9,0,185.5c230.2,0,458,0,687.5,0c0-61.5,0-122.4,0-184.7
			c42.1,0,82.6,0,124.5,0c0.3,5.3,0.9,10.4,0.9,15.4c0.1,74.8,0.2,149.6,0,224.4c-0.1,46.6-24.5,71.1-70.9,71.2
			c-264.7,0.1-529.4,0.1-794.1,0c-47.6,0-71.7-24.3-71.8-72.3c-0.1-73.5,0-147,0-220.5C31.5,701.5,31.5,695.8,31.5,688.1z"/>
	</g>
</g>
</svg>
