<svg version="1.1" xmlns="http://www.w3.org/2000/svg" xmlns:xlink="http://www.w3.org/1999/xlink" x="0px" y="0px"
	 viewBox="0 0 1000 1000">
<g>
	<g>
		<path fill="currentColor" class="st0" d="M498.4,999.6c-130.7,0-261.4-0.9-392,0.3c-65.6,0.6-91.6-28-77.6-92.5c34.8-159.8,121.1-282,267.3-357.3
			c21.4-11,55.7-10.4,79-1.8c82.4,30.5,161.8,30.8,245,2c27.6-9.5,67.7-8.4,92.9,5C852.7,629.8,936.5,749,969.7,902.8
			c15.9,73.6-2.9,95.7-79.2,96.5C759.8,1000.6,629.1,999.6,498.4,999.6z"/>
		<path fill="currentColor" class="st0" d="M499.3,500c-138,0.2-249.1-109.5-250.4-247.2C247.7,112.3,362.2-2,502.2,0C639.1,2,749.9,115,749.1,251.8
			C748.4,388.9,636.8,499.8,499.3,500z"/>
	</g>
</g>
</svg>
