<?xml version="1.0" encoding="utf-8"?>
<!-- Generator: Adobe Illustrator 24.0.2, SVG Export Plug-In . SVG Version: 6.00 Build 0)  -->
<svg version="1.1" id="Capa_1" xmlns="http://www.w3.org/2000/svg" xmlns:xlink="http://www.w3.org/1999/xlink" x="0px" y="0px"
	 viewBox="0 0 1334 1000" style="enable-background:new 0 0 1334 1000;" xml:space="preserve">
<style type="text/css">
	.st0{fill:#0158F8;}
</style>
<g>
	<g>
		<g>
			<path class="st0" d="M1333.6,99c-7.5,26.5-25.9,45.1-44.6,63.8c-269.2,268.9-538.3,538-807.3,807.2
				c-26.7,26.7-57.2,37.6-93.3,24.1c-11.8-4.4-23.2-12.3-32.2-21.2C246.3,863.8,136.8,754.2,27.4,644.6
				c-35.1-35.2-35.9-86.5-2.6-120c33.7-33.8,85.2-32.9,120.9,2.7c87,86.7,173.7,173.6,260.6,260.4c3.3,3.3,6.8,6.5,13.7,13.1
				c3.5-5.3,5.8-10.7,9.7-14.6c251.8-252,503.7-503.8,755.5-755.9C1209,6.5,1236-5.5,1269.7,2.6c28.6,6.9,48,24.8,58.7,52.2
				c1.7,4.3,3.4,8.6,5.1,13C1333.6,78.2,1333.6,88.6,1333.6,99z"/>
		</g>
	</g>
</g>
</svg>
