<?xml version="1.0" encoding="utf-8"?>
<!-- Generator: Adobe Illustrator 24.0.2, SVG Export Plug-In . SVG Version: 6.00 Build 0)  -->
<svg version="1.1" id="Capa_1" xmlns="http://www.w3.org/2000/svg" xmlns:xlink="http://www.w3.org/1999/xlink" x="0px" y="0px"
	 viewBox="0 0 1119 1000" style="enable-background:new 0 0 1119 1000;" xml:space="preserve">
<style type="text/css">
	.st0{fill:#FFFFFF;}
</style>
<g>
	<path class="st0" d="M903,727.9c-47.8-43.4-76.1-95.8-84.1-155.8c-2.3-17.3-2.6-34.7-2.9-53.1c-0.2-10.3-0.3-21-0.9-31.6
		c-1.3-23.8-18.8-41.1-41.8-41.2c-23.1,0-40.2,16.7-41.6,40.7c-7.6,127.4,30.5,227.1,116.4,304.7c0.2,0.2,0.5,0.6,0.8,1.2
		c-1.4,0.6-2.7,1-3.5,1C736,793.9,626.7,794,517.5,794c-108.3,0-216.7-0.1-325-0.2c-0.8,0-2-0.3-3.2-0.8c0.6-1.2,1.2-2.2,1.8-2.7
		c76.2-70.8,114.9-159.8,115.1-264.6c0-11.3-0.1-22.7-0.2-34c-0.3-28.8-0.5-58.5,1.3-87.4c4.6-72.6,39.6-129.3,104-168.7
		c32-19.6,68.6-29.5,108.9-29.5c3.5,0,7.1,0.1,10.6,0.2c0.7,0,1.4,0,2.1,0c23.2,0,40.6-15.7,42.3-38.2c1.7-22.5-13.6-41-37.3-45
		c-3.3-0.6-6.5-0.7-9.3-0.8l-1.6-0.1c-3.7-0.1-7.3-0.2-10.9-0.2c-138.5,0-264.6,104.6-287,238.2c-7.5,44.5-7.1,90.5-6.8,135.1
		c0.1,8.2,0.1,16.5,0.1,24.7c0.1,86.9-30.3,156.6-93.2,213.1c-12.7,11.4-22.9,29-26.7,46c-5.5,24.4-0.3,48.2,14.7,67.1
		c15.7,19.8,40.3,31.3,67.5,31.5c24.3,0.2,48.5,0.3,72.8,0.3c18.4,0,36.8,0,55.1-0.1c15.7,0,31.3-0.1,46.9-0.1
		C393.6,960,445.8,1000,519.1,1000l3.4,0c71-1.1,124.5-43.3,155.1-122.1l105,0c21.2,0,42.5,0,63.7,0c42.2-0.1,71.6-18.2,85.1-52.5
		C940.9,801.3,943.7,764.9,903,727.9z M518.7,916.1c-27.8,0-52-13.9-66.4-37.1h132.9c-12.3,21.5-36.6,36.1-63.6,37.1
		C520.6,916,519.7,916.1,518.7,916.1z"/>
	<path class="st0" d="M805.1,0h-0.8C686.1,0,589.4,96,588.8,214c-0.3,57.4,21.9,111.5,62.5,152.4c40.6,40.9,94.5,63.6,151.9,63.7
		h0.7c118.2,0,214.4-96.6,214.5-215.2C1018.5,96.8,922.8,0.4,805.1,0z M672.7,215c0-35,13.6-67.9,38.4-92.7
		c24.8-24.7,57.7-38.4,92.7-38.4h0.7c71.7,0.4,130,59.2,130,131.1c0,34.9-13.6,67.8-38.4,92.7c-24.7,24.9-57.4,38.6-92.1,38.6
		c0,0-1.2,0-1.2,0C731.1,345.6,672.8,286.7,672.7,215z"/>
</g>
</svg>
