<?xml version="1.0" encoding="utf-8"?>
<!-- Generator: Adobe Illustrator 24.0.2, SVG Export Plug-In . SVG Version: 6.00 Build 0)  -->
<svg version="1.1" id="Capa_1" xmlns="http://www.w3.org/2000/svg" xmlns:xlink="http://www.w3.org/1999/xlink" x="0px" y="0px"
	 viewBox="0 0 1000 1000" style="enable-background:new 0 0 1000 1000;" xml:space="preserve">
<style type="text/css">
	.st0{fill:#0158F8;}
</style>
<g>
	<g>
		<path class="st0" d="M807.6,430.2c69.7-0.4,83.1,36.6,82,92c-2.6,131.1-2.6,262.2-0.1,393.3c1.1,59.2-20,85-81.1,84.4
			c-206.6-1.8-413.2-1.5-619.9-0.3c-57.1,0.4-79.2-23.5-78.2-80.3c2.2-135.5,1.1-271.1,0.5-406.7c-0.2-38.3,4.4-70.1,50.5-81.1
			c10.5-2.5,21.6-24.6,23.1-38.7c4.2-39.6,0.6-80.1,5.1-119.7C208.4,109.2,347.6-7.8,512.1,0.1C674,7.8,800.5,134.1,807.3,296
			C809.1,337.9,807.6,380,807.6,430.2z M686.5,430.1c31.1-141.1,0.9-248.5-83.3-302.2c-67.7-43.2-153.9-41.1-219.4,5.3
			c-80.6,57.1-108.1,167-73.6,296.9C435.5,430.1,561.3,430.1,686.5,430.1z M400.1,689.9c-16.1,17.4-30.2,32.7-38.5,41.7
			c36.6,41.6,69.6,79.1,92.9,105.6c73.9-74.2,144.7-145.3,217.4-218.3c-7.6-7.2-21.4-20.2-45.3-42.9
			c-53.3,60.4-103.8,117.7-155,175.8C442.6,726.7,422.9,709.6,400.1,689.9z"/>
	</g>
</g>
</svg>
