<?xml version="1.0" encoding="utf-8"?>
<!-- Generator: Adobe Illustrator 24.0.2, SVG Export Plug-In . SVG Version: 6.00 Build 0)  -->
<svg version="1.1" id="Capa_1" xmlns="http://www.w3.org/2000/svg" xmlns:xlink="http://www.w3.org/1999/xlink" x="0px" y="0px"
	 viewBox="0 0 1000 1000" style="enable-background:new 0 0 1000 1000;" xml:space="preserve">
<style type="text/css">
	.st0{fill:#0158F8;}
</style>
<g>
	<g>
		<path class="st0" d="M498.4,999.7c-130.7,0-261.4-0.9-392.1,0.3c-65.6,0.6-91.6-28.1-77.6-92.5
			c34.8-159.9,121.2-282.1,267.4-357.4c21.4-11,55.7-10.4,79.1-1.8c82.4,30.5,161.8,30.8,245,2c27.6-9.5,67.7-8.4,92.9,5
			c139.7,74.4,223.4,193.7,256.6,347.4c15.9,73.7-2.9,95.7-79.2,96.5C759.8,1000.7,629.1,999.7,498.4,999.7z"/>
		<path class="st0" d="M499.3,500c-138.1,0.2-249.2-109.5-250.4-247.2C247.7,112.2,362.2-2.1,502.2-0.1
			c136.9,2,247.7,114.9,247,251.8C748.4,388.9,636.8,499.8,499.3,500z"/>
	</g>
</g>
</svg>
